<svg width="18" height="14" viewBox="0 0 18 14" fill="none" xmlns="http://www.w3.org/2000/svg">
<path fill-rule="evenodd" clip-rule="evenodd" d="M15.25 1.06255L9 10.4376L2.75 1.06255C2.66792 0.939437 2.5624 0.833694 2.43946 0.75136C2.31651 0.669026 2.17856 0.611714 2.03347 0.582696C1.88838 0.553678 1.73899 0.553523 1.59384 0.582238C1.44868 0.610952 1.31061 0.667975 1.1875 0.750051C1.06438 0.832128 0.958638 0.937649 0.876305 1.06059C0.793971 1.18353 0.736659 1.32149 0.707641 1.46658C0.678623 1.61167 0.678466 1.76106 0.707181 1.90621C0.735896 2.05136 0.792919 2.18944 0.874995 2.31255L7.96 12.9401C8.07415 13.1112 8.2288 13.2516 8.41022 13.3487C8.59165 13.4458 8.79423 13.4966 9 13.4966C9.20576 13.4966 9.40835 13.4458 9.58977 13.3487C9.77119 13.2516 9.92584 13.1112 10.04 12.9401L17.125 2.31255C17.2071 2.18944 17.2641 2.05136 17.2928 1.90621C17.3215 1.76106 17.3214 1.61167 17.2924 1.46658C17.2633 1.32149 17.206 1.18353 17.1237 1.06059C17.0414 0.937649 16.9356 0.832128 16.8125 0.750051C16.6894 0.667975 16.5513 0.610952 16.4062 0.582238C16.261 0.553523 16.1116 0.553678 15.9665 0.582696C15.8214 0.611714 15.6835 0.669026 15.5605 0.75136C15.4376 0.833694 15.3321 0.939437 15.25 1.06255Z" fill="white"/>
</svg>
