<svg width="14" height="18" viewBox="0 0 14 18" fill="none" xmlns="http://www.w3.org/2000/svg">
<path fill-rule="evenodd" clip-rule="evenodd" d="M12.9375 15.3242L3.56251 9.07422L12.9375 2.82422C13.0606 2.74214 13.1664 2.63662 13.2487 2.51368C13.331 2.39074 13.3883 2.25278 13.4174 2.10769C13.4464 1.9626 13.4465 1.81321 13.4178 1.66806C13.3891 1.52291 13.3321 1.38483 13.25 1.26172C13.1679 1.1386 13.0624 1.03286 12.9395 0.950528C12.8165 0.868194 12.6786 0.810882 12.5335 0.781864C12.3884 0.752845 12.239 0.752689 12.0939 0.781403C11.9487 0.810118 11.8106 0.867142 11.6875 0.949218L1.06001 8.03422C0.888812 8.14837 0.748443 8.30302 0.651359 8.48445C0.554275 8.66587 0.503479 8.86845 0.503479 9.07422C0.503479 9.27998 0.554275 9.48257 0.651359 9.66399C0.748443 9.84541 0.888812 10.0001 1.06001 10.1142L11.6875 17.1992C11.8106 17.2813 11.9487 17.3383 12.0939 17.367C12.239 17.3957 12.3884 17.3956 12.5335 17.3666C12.6786 17.3376 12.8165 17.2802 12.9395 17.1979C13.0624 17.1156 13.1679 17.0098 13.25 16.8867C13.3321 16.7636 13.3891 16.6255 13.4178 16.4804C13.4465 16.3352 13.4464 16.1858 13.4174 16.0407C13.3883 15.8957 13.331 15.7577 13.2487 15.6348C13.1664 15.5118 13.0606 15.4063 12.9375 15.3242Z" fill="white"/>
</svg>
